# xmcd CD database file
#
# Track frame offsets:
#	150
#	20932
#	39522
#	72420
#	99692
#	121007
#	136065
#	180170
#	207077
#	233737
#	255377
#	281675
#	301667
#	322460
#
# Disc length: 4390 seconds
#
# Revision: 5
# Processed by: cddbd v1.5.1PL2 Copyright (c) Steve Scherf et al.
# Submitted via: CDex 1.51
#
DISCID=c011240e
DTITLE=Various Artist - One Half of a Whole Decade: Five years at Ministry of Sound
DYEAR=1900
DGENRE=Blues
TTITLE0=Bizarre, Inc. - Raise Me
TTITLE1=Leftfield - Not Forgotten
TTITLE2=Anthony White - Love me tonight
TTITLE3=Jaydee - Plastic Dreams
TTITLE4=More Kante - Yeke Yeke
TTITLE5=Golden Girls - Kinetic
TTITLE6=Mankey - Believe in me
TTITLE7=Donna Summer - Melody of Love
TTITLE8=Sunscreen - When
TTITLE9=Beloved - Satellite
TTITLE10=Jennifer Lucas - Take me higher
TTITLE11=28th Street Crew - O
TTITLE12=Mozaic - Rays of the rising sun
TTITLE13=Jennifer Lucas - Take me higher
EXTD=Disk 2 of 3:  Frisky? f-Seb Fontaine - Jon Pleased Wimmin
EXTT0=Eon's ascension mix
EXTT1=Hard hands mix
EXTT2=Gomez rock the joint mix
EXTT3=Long Version
EXTT4=Hardfloor dub
EXTT5=Frank de Wulf mix
EXTT6=Madd Ladds 12" mix
EXTT7=Epris mix
EXTT8=K-Klassix mix
EXTT9=Freedom vocal
EXTT10=Club 12"
EXTT11=Hi-Lux mix
EXTT12=Electric Beach mix
EXTT13=Stringapella reprise
PLAYORDER=
